<svg width="60" height="60" viewBox="0 0 60 60" fill="none" xmlns="http://www.w3.org/2000/svg">
<path d="M52.0059 56.4713L28.3993 43.9763C27.7841 43.6501 27.0338 43.6951 26.4524 44.0888L8.4014 56.5838C7.72617 57.0525 7.43358 57.9038 7.68116 58.6875C7.92124 59.4638 8.64898 60 9.46675 60H51.1243C51.9833 60 52.7373 59.415 52.9437 58.575C53.1537 57.7388 52.7636 56.8725 52.0059 56.4713Z" fill="#1565D8"/>
<path d="M59.9057 52.9093L54.3539 27.9231C54.2188 27.3118 53.7874 26.8131 53.206 26.5844C52.6208 26.3556 51.9643 26.4344 51.4542 26.7868L33.3994 39.2818C32.8593 39.6568 32.5554 40.2831 32.5967 40.9318C32.6342 41.588 33.0131 42.173 33.5908 42.4768L57.1936 54.9717C57.4712 55.118 57.7713 55.193 58.0714 55.193C58.4728 55.193 58.8741 55.0655 59.208 54.8067C59.7894 54.3642 60.0633 53.6255 59.9057 52.9093Z" fill="#1565D8"/>
<path d="M46.8441 23.8166C46.5965 23.0329 45.8725 22.5004 45.051 22.5004H27.9303C24.8168 28.1366 20.2102 33.5253 18.3159 35.6328C17.2505 36.8178 15.7238 37.5003 14.1295 37.5003C12.5352 37.5003 11.0084 36.8178 9.94309 35.6328C9.2116 34.8191 8.07873 33.5178 6.7808 31.9054L2.24179 52.3278C2.07674 53.0815 2.38809 53.8578 3.0258 54.289C3.34091 54.5028 3.70853 54.6078 4.0724 54.6078C4.44752 54.6078 4.8189 54.499 5.1415 54.274L46.1163 25.9129C46.7953 25.4516 47.0842 24.6004 46.8441 23.8166Z" fill="#AAC8F2"/>
<path d="M14.1294 0C6.88945 0 1 5.88748 1 13.125C1 19.8599 11.5335 31.7886 12.7339 33.1274C13.0903 33.5211 13.5967 33.7499 14.1294 33.7499C14.662 33.7499 15.1684 33.5211 15.5248 33.1274C16.7252 31.7886 27.2587 19.8599 27.2587 13.125C27.2587 5.88748 21.3693 0 14.1294 0ZM14.1294 18.7499C11.0233 18.7499 8.50249 16.2299 8.50249 13.125C8.50249 10.02 11.0233 7.49997 14.1294 7.49997C17.2354 7.49997 19.7562 10.02 19.7562 13.125C19.7562 16.2299 17.2354 18.7499 14.1294 18.7499Z" fill="#1565D8"/>
</svg>
