<svg width="60" height="60" viewBox="0 0 60 60" fill="none" xmlns="http://www.w3.org/2000/svg">
<path d="M38.9641 49.5687H22.6298C22.4681 50.2156 22.3872 50.5391 22.3872 50.6199C22.2255 51.186 21.6595 51.4286 21.0934 51.2668C20.5274 51.1051 20.2848 50.5391 20.4465 50.0539C20.4465 49.973 23.2767 40.027 18.3441 34.0431C18.2633 33.8814 18.1824 33.7197 18.1015 33.558C18.1015 33.3154 17.9398 32.1024 18.7484 29.5957C20.2848 25.1483 20.6083 21.5094 19.4762 19.407C18.991 18.4367 18.1824 17.7898 17.0503 17.3854H16.9694C16.8886 17.3854 16.8886 17.3854 16.8077 17.3854C16.3225 17.3854 15.3522 17.4663 15.1905 18.0323C15.1905 18.1132 11.3091 30.2426 10.0961 32.6685C9.5301 33.8005 9.85355 36.3073 10.0961 37.9245C10.2579 39.2992 10.3387 39.8652 10.177 40.3504L10.0961 40.6739C9.61096 42.2911 8.96406 43.9084 8.07457 44.8787C7.83198 46.6577 7.42767 55.876 20.3657 60L23.6002 56.4421C23.8428 56.1995 24.1662 56.0377 24.4897 56.1186C24.894 56.2803 33.5463 57.4933 38.9641 49.5687Z" fill="#1565D8"/>
<path d="M18.0209 15.6875C19.5573 16.2535 20.6894 17.2239 21.3363 18.5985C22.711 21.1861 22.4684 25.3101 20.6894 30.4045C20.2042 31.86 20.1234 32.7495 20.1234 33.1538C21.7406 35.1754 22.5492 37.5204 22.9536 39.7845H40.0155C39.8538 39.2185 39.773 38.7333 39.773 38.329C39.773 38.0864 39.8538 37.8438 40.0964 37.6012L42.8457 34.8519C40.5007 33.8816 39.8538 31.5365 39.8538 30.2427C39.8538 30.0002 39.9347 29.7576 40.1773 29.515L42.9266 26.7657C40.5816 25.7953 39.9347 23.4503 39.9347 22.1565C39.9347 21.9139 40.0155 21.6713 40.2581 21.4287L44.8673 16.8196V5.82226H18.1827V15.6875H18.0209Z" fill="#AAC8F2"/>
<path d="M44.7053 46.4152V43.2615C43.088 43.0998 41.9559 42.5338 41.2282 41.7251H23.1958C23.3576 43.9084 23.1958 45.93 22.9532 47.5472H43.4923C44.1392 47.5472 44.7053 47.0621 44.7053 46.4152ZM32.9802 46.0109C32.3333 46.0109 31.7673 45.4448 31.7673 44.7979C31.7673 44.151 32.3333 43.585 32.9802 43.585C33.6271 43.585 34.1931 44.151 34.1931 44.7979C34.1931 45.4448 33.6271 46.0109 32.9802 46.0109Z" fill="#1565D8"/>
<path d="M44.7056 1.13208C44.7056 0.485175 44.2204 0 43.5735 0H19.153C18.5061 0 18.0209 0.485175 18.0209 1.13208V3.80054H44.7056V1.13208Z" fill="#1565D8"/>
<path d="M51.6598 9.54178L51.4172 9.29919C50.6086 8.49057 49.3956 8.49057 48.587 9.29919L46.7272 11.159V15.5256C47.2932 15.3639 47.9401 15.3639 48.587 15.4447L51.6598 12.372C52.3875 11.5633 52.3875 10.3504 51.6598 9.54178Z" fill="#1565D8"/>
<path d="M49.1531 26.1186L48.9105 25.876C48.3444 25.31 47.2932 25.2291 46.6463 25.7952L45.5951 26.8464C45.5951 26.8464 45.5951 26.8464 45.5142 26.8464L41.8754 30.4852C41.9563 31.213 42.4415 32.7494 44.463 33.0728L45.1099 32.4259C45.1099 32.4259 45.1908 32.4259 45.1908 32.345L49.1531 28.3828C49.4765 28.0593 49.6382 27.655 49.6382 27.1698C49.6382 26.8464 49.4765 26.4421 49.1531 26.1186Z" fill="#1565D8"/>
<path d="M49.1531 18.0323L48.9105 17.7897C48.2636 17.1428 47.1315 17.1428 46.5655 17.7897L41.8754 22.4797C41.9563 23.2075 42.4415 24.7439 44.463 25.0673L45.1099 24.4204L45.1908 24.3395L49.1531 20.3773C49.4765 20.0538 49.6382 19.6495 49.6382 19.1643C49.6382 18.8409 49.4765 18.3557 49.1531 18.0323Z" fill="#1565D8"/>
<path d="M45.0287 40.7549L49.2336 36.5501C49.557 36.2266 49.7187 35.8223 49.7187 35.3371C49.7187 34.8519 49.557 34.4476 49.2336 34.1242L48.991 33.8816C48.4249 33.2347 47.3737 33.2347 46.7268 33.8007L45.6756 34.8519C45.6756 34.8519 45.6756 34.8519 45.5947 34.8519L41.9559 38.4908C42.0368 39.2185 42.522 40.7549 44.5435 41.0784L45.0287 40.7549Z" fill="#1565D8"/>
</svg>
