<svg width="60" height="60" viewBox="0 0 60 60" fill="none" xmlns="http://www.w3.org/2000/svg">
<path d="M35.2493 2H8.41653C4.86994 2 2 4.86994 2 8.41653V44.5824C2 48.129 4.86994 50.9989 8.41653 50.9989H27.4095C25.3562 48.199 24.1662 44.7924 24.1662 41.0825C24.1662 31.7494 31.7494 24.1662 41.0825 24.1662C41.2692 24.1662 41.4792 24.1662 41.6658 24.1895V8.41653C41.6658 4.86994 38.7959 2 35.2493 2ZM11.3331 11.3331H20.6663C21.9496 11.3331 22.9995 12.3831 22.9995 13.6664C22.9995 14.9497 21.9496 15.9997 20.6663 15.9997H11.3331C10.0498 15.9997 8.99985 14.9497 8.99985 13.6664C8.99985 12.3831 10.0498 11.3331 11.3331 11.3331ZM22.9995 34.666H11.3331C10.0498 34.666 8.99985 33.616 8.99985 32.3327C8.99985 31.0494 10.0498 29.9994 11.3331 29.9994H22.9995C24.2829 29.9994 25.3328 31.0494 25.3328 32.3327C25.3328 33.616 24.2829 34.666 22.9995 34.666ZM32.3327 25.3328H11.3331C10.0498 25.3328 8.99985 24.2829 8.99985 22.9995C8.99985 21.7162 10.0498 20.6663 11.3331 20.6663H32.3327C33.616 20.6663 34.666 21.7162 34.666 22.9995C34.666 24.2829 33.616 25.3328 32.3327 25.3328Z" fill="#1565D8"/>
<path d="M41.0837 53.3335C34.3289 53.3335 28.834 47.8386 28.834 41.0838C28.834 34.3289 34.3289 28.834 41.0837 28.834C47.8386 28.834 53.3335 34.3289 53.3335 41.0838C53.3335 47.8386 47.8386 53.3335 41.0837 53.3335ZM41.0837 33.5006C36.9025 33.5006 33.5006 36.9025 33.5006 41.0838C33.5006 45.265 36.9025 48.667 41.0837 48.667C45.265 48.667 48.6669 45.265 48.6669 41.0838C48.6669 36.9025 45.265 33.5006 41.0837 33.5006Z" fill="#AAC8F2"/>
<path d="M55.667 58.0003C55.0697 58.0003 54.4723 57.7716 54.0173 57.3166L46.4342 49.7335C45.5219 48.8212 45.5219 47.3465 46.4342 46.4342C47.3465 45.5219 48.8211 45.5219 49.7334 46.4342L57.3166 54.0174C58.2289 54.9297 58.2289 56.4043 57.3166 57.3166C56.8616 57.7716 56.2643 58.0003 55.667 58.0003Z" fill="#AAC8F2"/>
</svg>
